<svg aria-hidden="true" style="position: absolute; width: 0; height: 0; overflow: hidden;" version="1.1" xmlns="http://www.w3.org/2000/svg" xmlns:xlink="http://www.w3.org/1999/xlink">
<defs>
<symbol id="icon-github" viewBox="0 0 32 32">
<path d="M16 0.396c-8.84 0-16 7.164-16 16 0 7.071 4.584 13.067 10.94 15.18 0.8 0.151 1.093-0.344 1.093-0.769 0-0.38-0.013-1.387-0.020-2.72-4.451 0.965-5.389-2.147-5.389-2.147-0.728-1.847-1.78-2.34-1.78-2.34-1.449-0.992 0.112-0.972 0.112-0.972 1.607 0.112 2.451 1.648 2.451 1.648 1.427 2.447 3.745 1.74 4.66 1.331 0.144-1.035 0.556-1.74 1.013-2.14-3.553-0.4-7.288-1.776-7.288-7.907 0-1.747 0.62-3.173 1.647-4.293-0.18-0.404-0.72-2.031 0.14-4.235 0 0 1.34-0.429 4.4 1.64 1.28-0.356 2.64-0.532 4-0.54 1.36 0.008 2.72 0.184 4 0.54 3.040-2.069 4.38-1.64 4.38-1.64 0.86 2.204 0.32 3.831 0.16 4.235 1.020 1.12 1.64 2.547 1.64 4.293 0 6.147-3.74 7.5-7.3 7.893 0.56 0.48 1.080 1.461 1.080 2.96 0 2.141-0.020 3.861-0.020 4.381 0 0.42 0.28 0.92 1.1 0.76 6.401-2.099 10.981-8.099 10.981-15.159 0-8.836-7.164-16-16-16z"></path>
</symbol>
<symbol id="icon-gmail" viewBox="0 0 32 32">
<path fill="#d14836" style="fill: var(--color1, #d14836)" d="M32 6v20c0 1.133-0.867 2-2 2h-2v-18.151l-12 8.617-12-8.617v18.151h-2c-1.135 0-2-0.867-2-2v-20c0-0.567 0.216-1.067 0.575-1.424 0.359-0.363 0.86-0.576 1.425-0.576h0.667l13.333 9.667 13.333-9.667h0.667c0.567 0 1.067 0.216 1.425 0.576 0.36 0.357 0.575 0.857 0.575 1.424z"></path>
</symbol>
<symbol id="icon-telegram" viewBox="0 0 32 32">
<path fill="#2ca5e0" style="fill: var(--color2, #2ca5e0)" d="M31.88 5.053l-4.813 22.733c-0.333 1.613-1.307 2-2.667 1.253l-7.333-5.427-3.547 3.427c-0.4 0.4-0.733 0.747-1.467 0.747-0.96 0-0.8-0.36-1.12-1.267l-2.533-8.253-7.267-2.267c-1.573-0.467-1.587-1.547 0.347-2.333l28.347-10.933c1.293-0.573 2.533 0.32 2.053 2.32z"></path>
</symbol>
<symbol id="icon-wechat" viewBox="0 0 32 32">
<path fill="#1aad00" style="fill: var(--color3, #1aad00)" d="M31.388 16.997c-0.812-1.84-2.344-3.301-4.123-4.201-3.139-1.589-7.041-1.58-10.172 0.040-2.175 1.116-3.991 3.116-4.505 5.549-0.424 1.792-0.044 3.721 0.907 5.281 1.415 2.349 3.972 3.849 6.628 4.331 1.924 0.391 3.915 0.159 5.784-0.38 1.123 0.435 2.123 1.139 3.211 1.661-0.281-0.943-0.581-1.875-0.901-2.803 1.221-0.867 2.328-1.948 2.992-3.305 0.992-1.887 1.052-4.228 0.18-6.173zM18.156 4.376c-3.327-1.872-7.469-2.153-11.048-0.86-2.352 0.847-4.48 2.42-5.795 4.56-1.193 1.933-1.64 4.344-1.065 6.556 0.577 2.453 2.281 4.511 4.349 5.884-0.4 1.133-0.78 2.265-1.14 3.407 1.3-0.68 2.6-1.391 3.901-2.081 1.56 0.5 3.22 0.745 4.88 0.691-0.44-1.257-0.54-2.62-0.34-3.935 0.3-1.828 1.3-3.5 2.659-4.739 2.301-2.153 5.561-3.061 8.661-2.841-0.581-2.847-2.581-5.252-5.099-6.64zM20.467 17.695c-0.279 0.869-1.541 1.131-2.153 0.469-0.675-0.612-0.412-1.891 0.473-2.164 0.979-0.413 2.109 0.716 1.68 1.695zM26.86 17.817c-0.341 0.781-1.521 0.964-2.101 0.36-0.279-0.255-0.36-0.639-0.459-0.973 0.139-0.611 0.56-1.244 1.24-1.273 0.94-0.131 1.781 1.031 1.3 1.888zM17.32 9.212c0.011 1.281-1.7 2.081-2.66 1.212-0.996-0.713-0.713-2.449 0.456-2.808 1.047-0.42 2.284 0.459 2.201 1.58zM9.241 9.537c-0.229 1.113-1.721 1.651-2.595 0.904-1.012-0.713-0.728-2.481 0.46-2.841 1.164-0.448 2.487 0.733 2.135 1.937z"></path>
</symbol>
</defs>
</svg>
